<svg width="22" height="25" viewBox="0 0 22 25" fill="none" xmlns="http://www.w3.org/2000/svg">
<path d="M18.3302 23.5371C16.9087 24.8036 15.3567 24.6036 13.8626 24.0037C12.2816 23.3904 10.8311 23.3638 9.16298 24.0037C7.07425 24.8303 5.97186 24.5903 4.72442 23.5371C-2.35406 16.8313 -1.3097 6.61923 6.72613 6.24594C8.68432 6.33926 10.0478 7.23248 11.1937 7.31247C12.9053 6.99251 14.5444 6.07263 16.372 6.19261C18.5623 6.35259 20.2159 7.15249 21.3038 8.59231C16.7782 11.0853 17.8515 16.5646 22 18.0978C21.1732 20.0975 20.0998 22.0839 18.3157 23.5504L18.3302 23.5371ZM11.0486 6.16595C10.8311 3.19299 13.4565 0.73997 16.4736 0.5C16.8942 3.93957 13.0794 6.49924 11.0486 6.16595Z" fill="#232323"/>
</svg>
