<svg width="35" height="35" viewBox="0 0 35 35" fill="none" xmlns="http://www.w3.org/2000/svg">
<path d="M7.64531 16.4981C4.11362 16.4981 1.72461 14.037 1.72461 10.3904C1.72461 7.10884 4.46522 4.375 8.1772 4.375C12.243 4.375 15.2473 7.65652 15.2473 12.6689C15.2473 24.0618 6.93987 28.619 1.72461 29.1667V24.1542C5.2608 23.5164 9.23648 19.9622 9.41453 16.0406C9.23648 16.1308 8.53105 16.4981 7.64531 16.4981Z" fill="#E35223"/>
<path d="M25.6766 16.4981C22.1426 16.4981 19.7559 14.037 19.7559 10.3904C19.7559 7.10884 22.4965 4.375 26.2085 4.375C30.2743 4.375 33.2786 7.65652 33.2786 12.6689C33.2786 24.0618 24.9711 28.619 19.7559 29.1667V24.1542C23.2921 23.5164 27.2677 19.9622 27.4458 16.0406C27.2677 16.1308 26.5623 16.4981 25.6766 16.4981Z" fill="#E35223"/>
</svg>
