<svg width="27" height="25" viewBox="0 0 27 25" fill="none" xmlns="http://www.w3.org/2000/svg">
<path d="M24.5331 10.4596H23.627V10.4163H13.502V14.583H19.8599C18.9323 17.0085 16.4399 18.7497 13.502 18.7497C9.77427 18.7497 6.75195 15.9512 6.75195 12.4997C6.75195 9.04811 9.77427 6.24967 13.502 6.24967C15.2226 6.24967 16.7881 6.85072 17.98 7.83249L21.1621 4.88613C19.1528 3.15228 16.4652 2.08301 13.502 2.08301C7.28914 2.08301 2.25195 6.74707 2.25195 12.4997C2.25195 18.2523 7.28914 22.9163 13.502 22.9163C19.7148 22.9163 24.752 18.2523 24.752 12.4997C24.752 11.8012 24.6743 11.1195 24.5331 10.4596Z" fill="#FFC107"/>
<path d="M3.54688 7.65124L7.24306 10.1611C8.24319 7.86842 10.6653 6.24967 13.4998 6.24967C15.2204 6.24967 16.7859 6.85072 17.9778 7.83249L21.1599 4.88613C19.1506 3.15228 16.463 2.08301 13.4998 2.08301C9.17863 2.08301 5.43125 4.34186 3.54688 7.65124Z" fill="#FF3D00"/>
<path d="M13.4997 22.916C16.4056 22.916 19.0459 21.8864 21.0422 20.2119L17.5604 17.4838C16.3929 18.3058 14.9664 18.7505 13.4997 18.7494C10.5736 18.7494 8.089 17.0218 7.153 14.6108L3.48438 17.228C5.34625 20.6015 9.12738 22.916 13.4997 22.916Z" fill="#4CAF50"/>
<path d="M24.5312 10.4597H23.625V10.4165H13.5V14.5832H19.8579C19.4142 15.7376 18.615 16.7463 17.559 17.4847L17.5607 17.4837L21.0426 20.2118C20.7962 20.4191 24.75 17.7082 24.75 12.4998C24.75 11.8014 24.6724 11.1196 24.5312 10.4597Z" fill="#1976D2"/>
</svg>
