<svg width="42" height="40" viewBox="0 0 42 40" fill="none" xmlns="http://www.w3.org/2000/svg">
<path d="M0 40V0H42V40H0Z" fill="#FFD600"/>
<path d="M26.4637 30.3154C27.2574 31.5799 28.12 32.7915 29.9472 32.7915C31.482 32.7915 32.2872 32.0434 32.2872 31.0084C32.2872 29.7697 31.4544 29.3299 29.766 28.6088L28.8403 28.2218C26.1689 27.1103 24.3921 25.7175 24.3921 22.7756C24.3921 20.0644 26.5084 18.0011 29.8153 18.0011C32.1702 18.0011 33.8621 18.801 35.0825 20.8957L32.1989 22.7036C31.5645 21.5921 30.8786 21.1545 29.8153 21.1545C28.7302 21.1545 28.0431 21.8261 28.0431 22.7036C28.0431 23.7881 28.7314 24.2269 30.32 24.8985L31.2457 25.2855C34.3943 26.6006 36.1699 27.9439 36.1699 30.9634C36.1699 34.2169 33.5501 36 30.0332 36C26.5933 36 24.6399 34.3069 23.5525 32.211L26.4637 30.3154ZM13.174 30.4076C13.7544 31.4269 14.6365 32.211 15.9051 32.211C17.1187 32.211 17.8173 31.7408 17.8173 29.9126V18H21.6403V30.4886C21.6403 34.2765 19.4002 36 16.1288 36C13.1729 36 11.0394 34.0357 10.1699 32.211L13.174 30.4076Z" fill="#000001"/>
</svg>
