<svg width="40" height="40" viewBox="0 0 40 40" fill="none" xmlns="http://www.w3.org/2000/svg">
<g clip-path="url(#clip0_124_717)">
<mask id="mask0_124_717" style="mask-type:alpha" maskUnits="userSpaceOnUse" x="0" y="0" width="40" height="40">
<path d="M20 40C31.0457 40 40 31.0457 40 20C40 8.9543 31.0457 0 20 0C8.9543 0 0 8.9543 0 20C0 31.0457 8.9543 40 20 40Z" fill="black"/>
</mask>
<g mask="url(#mask0_124_717)">
<path d="M20.0013 39.3337C30.6788 39.3337 39.3346 30.6778 39.3346 20.0003C39.3346 9.32282 30.6788 0.666992 20.0013 0.666992C9.3238 0.666992 0.667969 9.32282 0.667969 20.0003C0.667969 30.6778 9.3238 39.3337 20.0013 39.3337Z" fill="black" stroke="white" stroke-width="6"/>
<path d="M33.224 35.0044L15.3649 12H12V27.9933H14.6919V15.4186L31.1109 36.6322C31.8518 36.1364 32.5576 35.5922 33.224 35.0044Z" fill="url(#paint0_linear_124_717)"/>
<path d="M28.2233 12H25.5566V28H28.2233V12Z" fill="url(#paint1_linear_124_717)"/>
</g>
</g>
<defs>
<linearGradient id="paint0_linear_124_717" x1="24.2222" y1="25.8889" x2="32.1111" y2="35.6667" gradientUnits="userSpaceOnUse">
<stop stop-color="white"/>
<stop offset="1" stop-color="white" stop-opacity="0"/>
</linearGradient>
<linearGradient id="paint1_linear_124_717" x1="26.89" y1="12" x2="26.8453" y2="23.75" gradientUnits="userSpaceOnUse">
<stop stop-color="white"/>
<stop offset="1" stop-color="white" stop-opacity="0"/>
</linearGradient>
<clipPath id="clip0_124_717">
<rect width="40" height="40" fill="white"/>
</clipPath>
</defs>
</svg>
