<svg width="38" height="40" viewBox="0 0 38 40" fill="none" xmlns="http://www.w3.org/2000/svg">
<path d="M8.04492 0H9.75195V1.78125H11.3254V0H13.0324V5.39063H11.3254V3.59375H9.7668V5.39063H8.04492M15.2887 1.79688H13.782V0H18.5098V1.79688H16.9957V5.39063H15.2887M19.2594 0H21.048L22.1465 1.89844L23.2449 0H25.0336V5.39063H23.3266V2.71875L22.1316 4.65625L20.9367 2.71875V5.39063H19.2594M25.8797 0H27.5867V3.60938H30.0063V5.39063H25.8797" fill="black"/>
<path d="M7.98633 36.7969L5.53711 7.85938H32.4637L30.0145 36.7812L18.9781 40" fill="#E44D26"/>
<path d="M19 37.5391V10.2344H30.0066L27.9063 34.9219" fill="#F16529"/>
<path d="M10.5391 13.7734H19V17.3203H14.2352L14.5469 20.9531H19V24.4922H11.4594M11.6078 26.2734H14.9922L15.2297 29.1094L19 30.1719V33.875L12.0828 31.8437" fill="#EBEBEB"/>
<path d="M27.4305 13.7734H18.9844V17.3203H27.1188M26.8145 20.9531H18.9844V24.5H23.1406L22.7473 29.1094L18.9844 30.1719V33.8594L25.8867 31.8438" fill="white"/>
</svg>
