<svg width="40" height="40" viewBox="0 0 40 40" fill="none" xmlns="http://www.w3.org/2000/svg">
<g clip-path="url(#clip0_124_744)">
<path d="M39.9924 19.5599C39.8837 12.8724 36.1549 6.36111 30.3862 2.93236C25.8412 0.10173 20.0999 -0.660145 14.9287 0.646105C7.14555 2.60548 0.940551 9.65423 0.151801 17.688C-0.8282 25.2755 3.0093 33.1667 9.56743 37.058C15.9899 41.0855 24.7256 40.9224 31.0049 36.683C36.6656 33.0092 40.1762 26.308 39.9862 19.5655L39.9924 19.5599ZM21.1062 37.0317C12.0168 37.9299 3.2268 30.2286 2.98118 21.1117C2.29368 13.7099 7.1718 6.38923 14.1387 3.93986C23.9087 0.0211052 35.9099 7.25985 36.9168 17.738C38.4956 27.153 30.6581 36.738 21.1062 37.0317ZM15.1249 18.988L28.2687 8.23798L21.1662 19.0149C19.1524 19.0149 17.1387 19.0155 15.1249 18.988ZM18.8206 20.9755L24.8618 21.003L11.7181 31.7799L18.8206 20.9755Z" fill="#232323"/>
</g>
<defs>
<clipPath id="clip0_124_744">
<rect width="40" height="40" fill="white"/>
</clipPath>
</defs>
</svg>
