<svg width="35" height="40" viewBox="0 0 35 40" fill="none" xmlns="http://www.w3.org/2000/svg">
<g clip-path="url(#clip0_124_727)">
<path d="M17.563 40.0004C17.0299 40.0004 16.5322 39.8546 16.0701 39.5995L11.3426 36.7202C10.6317 36.3193 10.9871 36.1735 11.2004 36.1006C12.1601 35.7726 12.3378 35.6997 13.3331 35.1165C13.4397 35.0436 13.5819 35.0801 13.6885 35.153L17.3142 37.3762C17.4564 37.4491 17.6341 37.4491 17.7408 37.3762L31.9234 28.957C32.0656 28.8841 32.1367 28.7383 32.1367 28.5561V11.7541C32.1367 11.5719 32.0656 11.4261 31.9234 11.3532L17.7408 2.97051C17.5986 2.89762 17.4208 2.89762 17.3142 2.97051L3.13154 11.3532C2.98936 11.4261 2.91826 11.6084 2.91826 11.7541V28.5561C2.91826 28.7019 2.98936 28.8841 3.13154 28.957L7.00601 31.2532C9.1032 32.3465 10.4184 31.071 10.4184 29.7953V13.212C10.4184 12.9933 10.5961 12.7747 10.8449 12.7747H12.6578C12.871 12.7747 13.0843 12.9569 13.0843 13.212V29.7953C13.0843 32.6746 11.5558 34.3512 8.88989 34.3512C8.07237 34.3512 7.43256 34.3512 5.61971 33.44L1.88744 31.2532C0.96326 30.7064 0.394531 29.6859 0.394531 28.5926V11.7906C0.394531 10.6972 0.96326 9.67673 1.88744 9.12999L16.0701 0.710815C16.9588 0.200562 18.1673 0.200562 19.056 0.710815L33.2386 9.12999C34.1628 9.67673 34.7315 10.6972 34.7315 11.7906V28.5926C34.7315 29.6859 34.1628 30.7064 33.2386 31.2532L19.056 39.6724C18.6294 39.8546 18.0962 40.0004 17.563 40.0004Z" fill="#5FA04E"/>
<path d="M21.9689 28.446C15.7484 28.446 14.4688 25.5303 14.4688 23.0519C14.4688 22.8332 14.6465 22.6146 14.8953 22.6146H16.7437C16.9569 22.6146 17.1347 22.7603 17.1347 22.979C17.419 24.9107 18.2366 25.8583 22.0044 25.8583C24.9902 25.8583 26.2699 25.1658 26.2699 23.5257C26.2699 22.5781 25.9144 21.8856 21.2579 21.4118C17.3835 21.0109 14.9664 20.1362 14.9664 16.9653C14.9664 14.0131 17.3835 12.2637 21.4357 12.2637C25.9855 12.2637 28.2248 13.8673 28.5092 17.3662C28.5092 17.4756 28.4737 17.5849 28.4026 17.6943C28.3315 17.7671 28.2248 17.84 28.1182 17.84H26.2343C26.0566 17.84 25.8788 17.6943 25.8433 17.512C25.4168 15.5074 24.3148 14.8514 21.4001 14.8514C18.1299 14.8514 17.7389 16.0177 17.7389 16.8924C17.7389 17.9493 18.201 18.2774 22.6087 18.8605C26.9808 19.4437 29.0424 20.282 29.0424 23.4164C29.0424 26.6237 26.4476 28.446 21.9689 28.446Z" fill="#5FA04E"/>
</g>
<defs>
<clipPath id="clip0_124_727">
<rect width="35" height="40" fill="white"/>
</clipPath>
</defs>
</svg>
