<svg width="29" height="40" viewBox="0 0 29 40" fill="none" xmlns="http://www.w3.org/2000/svg">
<g clip-path="url(#clip0_124_698)">
<path d="M29.337 8L26.5977 36.7967L14.2846 40L2.00535 36.8012L-0.339844 8H29.337Z" fill="#264DE4"/>
<path d="M24.0645 34.9416L26.335 10.2266H14.4141V37.5413L24.0645 34.9416Z" fill="#2965F1"/>
<path d="M5.91992 20.9541L6.24715 24.5018H14.4174V20.9541H5.91992Z" fill="#EBEBEB"/>
<path d="M14.4167 13.7734H14.4041H5.26172L5.59361 17.3212H14.4167V13.7734Z" fill="#EBEBEB"/>
<path d="M14.4173 33.8596V30.1686L14.4013 30.1727L10.3351 29.1058L10.0752 26.2764H8.09937H6.41016L6.92166 31.8468L14.4005 33.8642L14.4173 33.8596Z" fill="#EBEBEB"/>
<path d="M6.69727 0H11.1193V1.79688H8.54647V3.59375H11.1193V5.39063H6.69727V0Z" fill="black"/>
<path d="M12.0039 0H16.4259V1.5625H13.8531V1.875H16.4259V5.46875H12.0039V3.82812H14.5767V3.51562H12.0039V0Z" fill="black"/>
<path d="M17.3105 0H21.7326V1.5625H19.1598V1.875H21.7326V5.46875H17.3105V3.82812H19.8834V3.51562H17.3105V0Z" fill="black"/>
<path d="M18.8982 24.5017L18.4744 29.1028L14.4023 30.1708V33.8617L21.8871 31.846L21.942 31.2466L22.8 21.9067L22.8891 20.9541L23.5482 13.7734H14.4023V17.3212H19.547L19.2148 20.9541H14.4023V24.5017H18.8982Z" fill="white"/>
</g>
<defs>
<clipPath id="clip0_124_698">
<rect width="29" height="40" fill="white"/>
</clipPath>
</defs>
</svg>
