<svg width="27" height="40" viewBox="0 0 27 40" fill="none" xmlns="http://www.w3.org/2000/svg">
<g clip-path="url(#clip0_124_736)">
<path d="M13.5 19.9997C13.5 18.2316 14.2112 16.5359 15.477 15.2856C16.7429 14.0354 18.4598 13.333 20.25 13.333C22.0402 13.333 23.7571 14.0354 25.023 15.2856C26.2888 16.5359 27 18.2316 27 19.9997C27 21.7678 26.2888 23.4635 25.023 24.7137C23.7571 25.964 22.0402 26.6663 20.25 26.6663C18.4598 26.6663 16.7429 25.964 15.477 24.7137C14.2112 23.4635 13.5 21.7678 13.5 19.9997Z" fill="#1ABCFE"/>
<path d="M0 33.3337C0 31.5655 0.711159 29.8699 1.97703 28.6196C3.2429 27.3694 4.95979 26.667 6.75 26.667H13.5V33.3337C13.5 35.1018 12.7888 36.7975 11.523 38.0477C10.2571 39.2979 8.54021 40.0003 6.75 40.0003C4.95979 40.0003 3.2429 39.2979 1.97703 38.0477C0.711159 36.7975 0 35.1018 0 33.3337Z" fill="#0ACF83"/>
<path d="M13.5 0V13.3333H20.25C22.0402 13.3333 23.7571 12.631 25.023 11.3807C26.2888 10.1305 27 8.43478 27 6.66667C27 4.89856 26.2888 3.20286 25.023 1.95262C23.7571 0.702379 22.0402 0 20.25 0L13.5 0Z" fill="#FF7262"/>
<path d="M0 6.66667C0 8.43478 0.711159 10.1305 1.97703 11.3807C3.2429 12.631 4.95979 13.3333 6.75 13.3333H13.5V0H6.75C4.95979 0 3.2429 0.702379 1.97703 1.95262C0.711159 3.20286 0 4.89856 0 6.66667Z" fill="#F24E1E"/>
<path d="M0 19.9997C0 21.7678 0.711159 23.4635 1.97703 24.7137C3.2429 25.964 4.95979 26.6663 6.75 26.6663H13.5V13.333H6.75C4.95979 13.333 3.2429 14.0354 1.97703 15.2856C0.711159 16.5359 0 18.2316 0 19.9997Z" fill="#A259FF"/>
</g>
<defs>
<clipPath id="clip0_124_736">
<rect width="27" height="40" fill="white"/>
</clipPath>
</defs>
</svg>
