<svg width="39" height="40" viewBox="0 0 39 40" fill="none" xmlns="http://www.w3.org/2000/svg">
<path d="M39 30.9933C37.5814 31.3633 36.7039 31.0096 35.9166 29.7971L30.3176 21.8521L29.5084 20.7521L22.9698 29.8233C22.2227 30.9146 21.439 31.3896 20.0448 31.0033L28.4176 19.4758L20.6225 9.0633C21.9631 8.7958 22.8893 8.93205 23.712 10.1633L29.5193 18.2071L35.3693 10.2071C36.1189 9.1158 36.9245 8.7008 38.27 9.1033L35.2475 13.2133L31.1525 18.6821C30.665 19.3071 30.732 19.7346 31.1805 20.3383L39 30.9933ZM0.00975 19.2833L0.694687 15.8283C2.55938 8.9908 10.2009 6.14955 15.4708 10.3746C18.5506 12.8596 19.316 16.3746 19.1636 20.3121H1.80375C1.54294 27.3996 6.51666 31.6771 12.8578 29.4946C15.082 28.7283 16.3922 26.9421 17.0479 24.7071C17.3806 23.5871 17.9315 23.4121 18.9577 23.7321C18.4336 26.5271 17.2514 28.8621 14.753 30.3233C11.0199 32.5108 5.69156 31.8033 2.88844 28.7633C1.21875 26.9996 0.528938 24.7646 0.219375 22.3746C0.170625 21.9796 0.073125 21.6033 0 21.2246C0.0065 20.5779 0.00975 19.9312 0.00975 19.2846V19.2833ZM1.83544 18.8083H17.5232C17.4208 13.6833 14.3093 10.0433 10.0571 10.0121C5.38931 9.97455 2.03775 13.5283 1.83544 18.8083Z" fill="#141F29"/>
</svg>
