<svg width="26" height="16" viewBox="0 0 26 16" fill="none" xmlns="http://www.w3.org/2000/svg">
<path fill-rule="evenodd" clip-rule="evenodd" d="M7.7751 0.0102445C5.68839 -0.114564 4.02688 0.936099 2.86513 2.25567C1.69683 3.58318 0.873923 5.34185 0.418641 7.09825C-0.0340236 8.85351 -0.147844 10.7166 0.217166 12.2767C0.573018 13.7925 1.47835 15.3515 3.3832 15.8451C5.20041 16.3159 6.83052 15.6465 8.076 14.7377C9.32411 13.8277 10.4047 12.5297 11.2761 11.2759C11.959 10.2922 12.5425 9.29034 13.0004 8.43484C13.4583 9.28921 14.0418 10.2922 14.7234 11.2759C15.5947 12.5297 16.6753 13.8277 17.9234 14.7377C19.1689 15.6465 20.799 16.3159 22.6162 15.8451C24.5211 15.3515 25.4264 13.7925 25.7823 12.2767C26.1486 10.7166 26.0335 8.85351 25.5808 7.09825C25.1255 5.34185 24.3026 3.58204 23.1343 2.25567C21.9739 0.936099 20.3124 -0.115699 18.2256 0.0102445C15.9571 0.1464 14.3401 1.67701 13.402 2.83319C13.2628 3.00598 13.1289 3.1819 13.0004 3.36079C12.8715 3.18182 12.7372 3.00589 12.5974 2.83319C11.6594 1.67587 10.0437 0.147534 7.7751 0.0102445ZM11.5037 5.71174C11.1335 6.52299 10.2347 8.37584 9.03367 10.1061C8.22122 11.2771 7.3159 12.3277 6.39094 13.0017C5.46599 13.6768 4.73989 13.8277 4.13416 13.6711C3.61608 13.5372 3.06529 13.0357 2.7814 11.8251C2.50927 10.6598 2.576 9.13036 2.9724 7.59521C3.37012 6.06007 4.06874 4.6293 4.94529 3.63197C5.82838 2.62783 6.73633 2.22276 7.59325 2.27496C8.59539 2.33509 9.59492 3.07487 10.4558 4.13801C10.9372 4.73142 11.297 5.33164 11.5024 5.7106L11.5037 5.71174ZM14.497 5.71174C14.866 6.52299 15.7661 8.37584 16.9658 10.1061C17.7795 11.2771 18.6849 12.3277 19.6085 13.0017C20.5348 13.6768 21.2595 13.8277 21.8666 13.6711C22.3834 13.5372 22.9341 13.0357 23.218 11.8251C23.4915 10.6598 23.4248 9.13036 23.027 7.59521C22.6293 6.06007 21.932 4.6293 21.0541 3.63197C20.1711 2.62783 19.2644 2.22276 18.4062 2.27496C17.404 2.33509 16.4045 3.07487 15.5437 4.13801C15.1449 4.63601 14.7948 5.16203 14.497 5.7106V5.71174Z" fill="#5BADFF"/>
</svg>
