<svg width="18" height="17" viewBox="0 0 18 17" fill="none" xmlns="http://www.w3.org/2000/svg">
<path d="M10.2127 7.21355C9.53011 6.53124 8.60449 6.14795 7.63936 6.14795C6.67424 6.14795 5.74862 6.53124 5.06603 7.21355L2.49186 9.78688C1.80926 10.4695 1.42578 11.3953 1.42578 12.3606C1.42578 13.326 1.80926 14.2518 2.49186 14.9344C3.17446 15.617 4.10027 16.0005 5.06561 16.0005C6.03096 16.0005 6.95676 15.617 7.63936 14.9344L8.92603 13.6477" stroke="#E35223" stroke-width="1.66667" stroke-linecap="round" stroke-linejoin="round"/>
<path d="M7.63965 9.78691C8.32224 10.4692 9.24786 10.8525 10.213 10.8525C11.1781 10.8525 12.1037 10.4692 12.7863 9.78691L15.3605 7.21358C16.0431 6.53098 16.4266 5.60518 16.4266 4.63983C16.4266 3.67449 16.0431 2.74868 15.3605 2.06608C14.6779 1.38348 13.7521 1 12.7867 1C11.8214 1 10.8956 1.38348 10.213 2.06608L8.92631 3.35275" stroke="#E35223" stroke-width="1.66667" stroke-linecap="round" stroke-linejoin="round"/>
</svg>
