<svg width="31" height="30" viewBox="0 0 31 30" fill="none" xmlns="http://www.w3.org/2000/svg">
<path d="M11.8466 25.9478C5.31344 25.9478 0 20.6606 0 14.1598C0 7.6589 5.31344 2.36475 11.8466 2.36475C12.0359 2.36475 12.1901 2.5182 12.1901 2.70653V13.811H16.5922C16.7815 13.811 16.9357 13.9645 16.9357 14.1528C16.9357 14.3411 16.7815 14.4946 16.5922 14.4946H11.8536C11.6643 14.4946 11.5101 14.3411 11.5101 14.1528V3.04831C5.51673 3.22967 0.693972 8.14019 0.693972 14.1598C0.693972 20.284 5.69898 25.2642 11.8536 25.2642C13.3747 25.2642 14.8538 24.9643 16.2417 24.3714C16.417 24.2947 16.6203 24.3784 16.6904 24.5528C16.7605 24.7272 16.6834 24.9294 16.5081 24.9992C15.029 25.627 13.4659 25.9478 11.8466 25.9478Z" fill="#7A4BFF"/>
<path d="M25.7342 12.1297H14.231C14.0418 12.1297 13.8876 11.9762 13.8876 11.7879V0.341778C13.8876 0.153451 14.0418 0 14.231 0C20.7642 0 26.0776 5.28711 26.0776 11.7879C26.0776 11.9832 25.9234 12.1297 25.7342 12.1297ZM14.5745 11.4531H25.3907C25.2084 5.59401 20.4558 0.864909 14.5745 0.690532V11.4531ZM3.71633 22.5853C3.6252 22.5853 3.54108 22.5504 3.47098 22.4876C3.3378 22.3551 3.3378 22.1389 3.47098 22.0064L11.6024 13.9153C11.7356 13.7827 11.9529 13.7827 12.086 13.9153C12.2192 14.0478 12.2192 14.264 12.086 14.3965L3.95466 22.4876C3.89157 22.5504 3.80745 22.5853 3.71633 22.5853Z" fill="#7A4BFF"/>
<path d="M17.4404 6.79376C16.8235 6.79376 16.3258 6.29853 16.3258 5.68472C16.3258 5.07091 16.8235 4.57568 17.4404 4.57568C18.0573 4.57568 18.555 5.07091 18.555 5.68472C18.555 6.29853 18.0573 6.79376 17.4404 6.79376ZM17.4404 5.25227C17.2021 5.25227 17.0058 5.44757 17.0058 5.68472C17.0058 5.92187 17.2021 6.11717 17.4404 6.11717C17.6787 6.11717 17.875 5.92187 17.875 5.68472C17.875 5.44757 17.6787 5.25227 17.4404 5.25227ZM20.3705 9.70236C19.7536 9.70236 19.2559 9.20713 19.2559 8.59333C19.2559 7.97952 19.7536 7.48429 20.3705 7.48429C20.9874 7.48429 21.4851 7.97952 21.4851 8.59333C21.4851 9.20713 20.9804 9.70236 20.3705 9.70236ZM20.3705 8.16087C20.1322 8.16087 19.9359 8.35617 19.9359 8.59333C19.9359 8.83048 20.1322 9.02578 20.3705 9.02578C20.6088 9.02578 20.8051 8.83048 20.8051 8.59333C20.7981 8.3492 20.6018 8.16087 20.3705 8.16087ZM17.0899 9.28386C17.0058 9.28386 16.9147 9.24898 16.8446 9.18621C16.7114 9.05368 16.7114 8.83745 16.8446 8.70493L20.4686 5.09184C20.6018 4.95931 20.8191 4.95931 20.9523 5.09184C21.0855 5.22437 21.0855 5.44059 20.9523 5.57312L17.3282 9.18621C17.2652 9.24898 17.181 9.28386 17.0899 9.28386ZM25.9223 24.6499C25.8312 24.6499 25.747 24.6151 25.6769 24.5523L24.3451 23.227C24.2119 23.0945 24.2119 22.8783 24.3451 22.7457C24.4783 22.6132 24.6956 22.6132 24.8287 22.7457L26.1606 24.071C26.2938 24.2035 26.2938 24.4198 26.1606 24.5523C26.0975 24.6151 26.0134 24.6499 25.9223 24.6499ZM19.5784 24.35C16.8796 24.35 14.6855 22.1668 14.6855 19.4814C14.6855 16.796 16.8796 14.6128 19.5784 14.6128C22.2772 14.6128 24.4712 16.796 24.4712 19.4814C24.4712 22.1668 22.2772 24.35 19.5784 24.35ZM19.5784 15.2964C17.2581 15.2964 15.3725 17.1727 15.3725 19.4814C15.3725 21.7902 17.2581 23.6665 19.5784 23.6665C21.8986 23.6665 23.7843 21.7902 23.7843 19.4814C23.7843 17.1727 21.8986 15.2964 19.5784 15.2964Z" fill="#7A4BFF"/>
<path d="M19.5786 25.9272C16.0106 25.9272 13.1016 23.0394 13.1016 19.4819C13.1016 15.9244 16.0036 13.0366 19.5786 13.0366C23.1536 13.0366 26.0557 15.9244 26.0557 19.4819C26.0557 23.0394 23.1466 25.9272 19.5786 25.9272ZM19.5786 13.7202C16.3892 13.7202 13.7885 16.3081 13.7885 19.4819C13.7885 22.6557 16.3892 25.2436 19.5786 25.2436C22.7681 25.2436 25.3687 22.6557 25.3687 19.4819C25.3687 16.3081 22.7751 13.7202 19.5786 13.7202Z" fill="#7A4BFF"/>
<path d="M24.3521 26.2064C24.2609 26.2064 24.1768 26.1716 24.1067 26.1088L22.7679 24.7762C22.6347 24.6436 22.6347 24.4273 22.7679 24.2947C22.901 24.1622 23.1183 24.1622 23.2515 24.2947L24.5904 25.6273C24.7236 25.7599 24.7236 25.9762 24.5904 26.1088C24.5273 26.1716 24.4432 26.2064 24.3521 26.2064Z" fill="#7A4BFF"/>
<path d="M27.996 29.9998C27.4633 29.9998 26.9306 29.7976 26.517 29.393L23.7831 26.6727C23.5799 26.4704 23.5799 26.1566 23.7831 25.9543L26.0123 23.7362C26.2156 23.5339 26.531 23.5339 26.7343 23.7362L29.4681 26.4565C30.2812 27.2726 30.2742 28.5909 29.4681 29.393C29.0615 29.7976 28.5288 29.9998 27.996 29.9998ZM24.386 26.31L27.0007 28.9117C27.5474 29.4488 28.4377 29.4558 28.9844 28.9117C29.5312 28.3677 29.5242 27.4818 28.9844 26.9378L26.3768 24.3431L24.386 26.31ZM21.519 22.0273C21.3297 22.0273 21.1755 21.8739 21.1755 21.6855V18.8258C21.1755 18.6374 21.3297 18.484 21.519 18.484C21.7082 18.484 21.8625 18.6374 21.8625 18.8258V21.6855C21.8625 21.8739 21.7082 22.0273 21.519 22.0273ZM17.6425 22.0273C17.4533 22.0273 17.2991 21.8739 17.2991 21.6855V20.9183C17.2991 20.73 17.4533 20.5765 17.6425 20.5765C17.8318 20.5765 17.986 20.73 17.986 20.9183V21.6855C17.986 21.8739 17.8318 22.0273 17.6425 22.0273ZM18.9324 22.0273C18.7431 22.0273 18.5889 21.8739 18.5889 21.6855V20.3394C18.5889 20.151 18.7431 19.9976 18.9324 19.9976C19.1216 19.9976 19.2758 20.151 19.2758 20.3394V21.6855C19.2758 21.8739 19.1216 22.0273 18.9324 22.0273ZM20.2222 22.0273C20.0329 22.0273 19.8787 21.8739 19.8787 21.6855V19.6488C19.8787 19.4605 20.0329 19.307 20.2222 19.307C20.4114 19.307 20.5656 19.4605 20.5656 19.6488V21.6855C20.5656 21.8739 20.4114 22.0273 20.2222 22.0273ZM17.6425 19.9976C17.5725 19.9976 17.4953 19.9767 17.4323 19.9278C17.285 19.8162 17.257 19.6 17.3692 19.4466L18.5959 17.8632C18.68 17.7516 18.8342 17.7028 18.9674 17.7446L20.124 18.1004L21.2736 17.0262C21.4138 16.8937 21.6311 16.9006 21.7573 17.0401C21.8905 17.1797 21.8835 17.3959 21.7433 17.5214L20.4465 18.7351C20.3553 18.8188 20.2292 18.8467 20.11 18.8118L18.9884 18.4631L17.9089 19.8581C17.8528 19.9557 17.7477 19.9976 17.6425 19.9976ZM5.07395 14.4942C4.88468 14.4942 4.73047 14.3408 4.73047 14.1525V10.3022C4.73047 10.1139 4.88468 9.96045 5.07395 9.96045H6.88248C7.07175 9.96045 7.22596 10.1139 7.22596 10.3022C7.22596 10.4906 7.07175 10.644 6.88248 10.644H5.41743V14.1525C5.41743 14.3408 5.26321 14.4942 5.07395 14.4942Z" fill="#7A4BFF"/>
<path d="M8.69291 14.4947H3.26731C3.07804 14.4947 2.92383 14.3412 2.92383 14.1529V11.4746C2.92383 11.2863 3.07804 11.1329 3.26731 11.1329H5.07584C5.26511 11.1329 5.41932 11.2863 5.41932 11.4746C5.41932 11.663 5.26511 11.8164 5.07584 11.8164H3.61079V13.8112H6.54089V9.36129C6.54089 9.17298 6.69511 9.01953 6.88437 9.01953H8.69291C8.88217 9.01953 9.03639 9.17298 9.03639 9.36129V14.1529C9.03639 14.3412 8.88217 14.4947 8.69291 14.4947ZM7.22785 13.8112H8.34943V9.70305H7.22785V13.8112Z" fill="#7A4BFF"/>
</svg>
