<svg width="31" height="30" viewBox="0 0 31 30" fill="none" xmlns="http://www.w3.org/2000/svg">
<path d="M30.9991 4.41726C30.9994 4.20048 30.9559 3.98577 30.871 3.7854C30.786 3.58503 30.6614 3.40293 30.5041 3.24953C30.3468 3.09613 30.1601 2.97443 29.9545 2.8914C29.7489 2.80836 29.5285 2.76562 29.306 2.76563H28.5652C28.4364 2.76563 28.313 2.81543 28.222 2.90408C28.131 2.99273 28.0798 3.11297 28.0798 3.23835C28.0798 3.36372 28.131 3.48396 28.222 3.57261C28.313 3.66126 28.4364 3.71107 28.5652 3.71107H29.306C29.4009 3.71105 29.4949 3.72927 29.5827 3.76468C29.6704 3.80009 29.7501 3.852 29.8172 3.91744C29.8843 3.98287 29.9375 4.06056 29.9737 4.14604C30.01 4.23152 30.0286 4.32312 30.0285 4.41561L30.0079 18.1031C30.0067 18.5006 29.8439 18.8815 29.5551 19.1624C29.2663 19.4433 28.875 19.6013 28.4668 19.6018H2.5127C2.10411 19.6014 1.7124 19.4431 1.42349 19.1617C1.13458 18.8803 0.972061 18.4988 0.971596 18.1008V4.41484C0.971804 4.22827 1.04798 4.0494 1.18342 3.91746C1.31885 3.78553 1.50249 3.7113 1.69404 3.71107H2.45263C2.58135 3.71107 2.7048 3.66126 2.79582 3.57261C2.88684 3.48396 2.93798 3.36372 2.93798 3.23835C2.93798 3.11297 2.88684 2.99273 2.79582 2.90408C2.7048 2.81543 2.58135 2.76563 2.45263 2.76563H1.69404C1.24515 2.76619 0.814812 2.94013 0.49741 3.2493C0.180007 3.55847 0.00145291 3.97763 0.000908203 4.41484L0 22.8351C0.000576748 23.2723 0.179145 23.6914 0.496544 24.0006C0.813943 24.3097 1.24426 24.4836 1.69313 24.4842H12.5013V27.0246C12.5013 27.6314 12.5013 29.0525 9.43447 29.0525H8.49757C8.36885 29.0525 8.2454 29.1023 8.15438 29.1909C8.06336 29.2796 8.01223 29.3998 8.01223 29.5252C8.01223 29.6506 8.06336 29.7708 8.15438 29.8595C8.2454 29.9481 8.36885 29.9979 8.49757 29.9979H22.5024C22.6311 29.9979 22.7546 29.9481 22.8456 29.8595C22.9366 29.7708 22.9878 29.6506 22.9878 29.5252C22.9878 29.3998 22.9366 29.2796 22.8456 29.1909C22.7546 29.1023 22.6311 29.0525 22.5024 29.0525H21.5655C18.4987 29.0525 18.4987 27.6313 18.4987 27.0246V26.3092C18.4973 26.1848 18.4455 26.0659 18.3547 25.9784C18.2638 25.8909 18.1412 25.8418 18.0134 25.8418C17.8856 25.8418 17.763 25.8909 17.6721 25.9784C17.5813 26.0659 17.5295 26.1848 17.5281 26.3092V27.0246C17.5281 27.358 17.5281 28.1388 18.0972 28.8239C18.1651 28.9046 18.2383 28.981 18.3164 29.0525H12.6837C12.7618 28.981 12.835 28.9046 12.9029 28.8239C13.472 28.1388 13.472 27.358 13.472 27.0246V24.4842H29.3069C29.7557 24.4836 30.1861 24.3097 30.5035 24.0006C30.8209 23.6914 30.9994 23.2723 31 22.8351L30.9991 4.41726ZM29.3069 23.5388H1.69313C1.50159 23.5386 1.31794 23.4644 1.1825 23.3325C1.04705 23.2005 0.970851 23.0217 0.970627 22.8351V20.0302C1.41076 20.3658 1.95373 20.5479 2.5127 20.5475H28.4668C29.0348 20.5478 29.5859 20.3597 30.0294 20.0141V22.8351C30.0291 23.0217 29.953 23.2005 29.8175 23.3325C29.6821 23.4644 29.4984 23.5386 29.3069 23.5388Z" fill="#FF00D6"/>
<path d="M16.1838 21.5097H14.3109C14.2477 21.509 14.1851 21.5208 14.1265 21.5443C14.068 21.5679 14.0147 21.6028 13.9698 21.6469C13.9249 21.6911 13.8893 21.7437 13.865 21.8017C13.8406 21.8596 13.8281 21.9218 13.8281 21.9847C13.8281 22.0475 13.8406 22.1097 13.865 22.1677C13.8893 22.2256 13.9249 22.2782 13.9698 22.3224C14.0147 22.3666 14.068 22.4015 14.1265 22.425C14.1851 22.4486 14.2477 22.4603 14.3109 22.4596H16.1838C16.247 22.4603 16.3096 22.4486 16.3682 22.425C16.4267 22.4015 16.48 22.3666 16.5249 22.3224C16.5698 22.2782 16.6054 22.2256 16.6297 22.1677C16.6541 22.1097 16.6666 22.0475 16.6666 21.9847C16.6666 21.9218 16.6541 21.8596 16.6297 21.8017C16.6054 21.7437 16.5698 21.6911 16.5249 21.6469C16.48 21.6028 16.4267 21.5679 16.3682 21.5443C16.3096 21.5208 16.247 21.509 16.1838 21.5097ZM4.34455 18.2343C4.40724 18.2343 4.46932 18.222 4.52725 18.1982C4.58517 18.1743 4.6378 18.1393 4.68213 18.0952C4.72647 18.0511 4.76163 17.9987 4.78562 17.9411C4.80962 17.8835 4.82197 17.8217 4.82197 17.7593V4.88987H25.6727V17.7593C25.672 17.8221 25.6838 17.8845 25.7075 17.9427C25.7312 18.001 25.7662 18.0539 25.8106 18.0986C25.855 18.1433 25.9079 18.1788 25.9662 18.203C26.0245 18.2272 26.087 18.2396 26.1501 18.2396C26.2133 18.2396 26.2758 18.2272 26.334 18.203C26.3923 18.1788 26.4452 18.1433 26.4896 18.0986C26.534 18.0539 26.569 18.001 26.5927 17.9427C26.6164 17.8845 26.6282 17.8221 26.6275 17.7593V2.44038C26.6267 1.79401 26.3683 1.17434 25.9089 0.717303C25.4495 0.260265 24.8267 0.00317845 24.177 0.00244141H6.31771C5.66804 0.00317845 5.04519 0.260265 4.58579 0.717303C4.12639 1.17434 3.86796 1.79401 3.86719 2.44038V17.7593C3.86718 17.8217 3.87952 17.8835 3.90351 17.9411C3.92749 17.9987 3.96265 18.0511 4.00698 18.0952C4.05131 18.1393 4.10394 18.1743 4.16186 18.1982C4.21978 18.222 4.28185 18.2343 4.34455 18.2343ZM6.31771 0.952243H24.177C24.5735 0.952682 24.9537 1.10961 25.2341 1.38859C25.5146 1.66758 25.6723 2.04583 25.6727 2.44038V3.93989H4.82197V2.44038C4.82241 2.04583 4.98014 1.66758 5.26055 1.38859C5.54096 1.10961 5.92115 0.952682 6.31771 0.952243Z" fill="#FF00D6"/>
<path d="M18.597 14.1741C18.6753 14.2521 18.7816 14.2959 18.8923 14.2959C19.0031 14.2959 19.1094 14.2521 19.1877 14.1741L21.8023 11.573L19.1877 8.97179C19.149 8.93271 19.103 8.90164 19.0522 8.88036C19.0013 8.85907 18.9468 8.84801 18.8917 8.8478C18.8365 8.84759 18.7819 8.85823 18.7309 8.87913C18.68 8.90002 18.6337 8.93074 18.5947 8.96952C18.5557 9.0083 18.5248 9.05438 18.5038 9.10509C18.4828 9.1558 18.4721 9.21014 18.4723 9.26499C18.4725 9.31984 18.4837 9.3741 18.5051 9.42465C18.5264 9.4752 18.5577 9.52103 18.597 9.55951L20.621 11.5732L18.597 13.5869C18.5188 13.6648 18.4749 13.7704 18.4749 13.8805C18.4749 13.9906 18.5188 14.0962 18.597 14.1741ZM11.8968 8.97132C11.8184 8.89338 11.7122 8.8496 11.6014 8.8496C11.4906 8.8496 11.3844 8.89338 11.306 8.97132L8.69141 11.5725L11.306 14.1737C11.3846 14.2506 11.4905 14.2936 11.6007 14.2931C11.711 14.2927 11.8166 14.249 11.8945 14.1714C11.9725 14.0939 12.0164 13.9888 12.0169 13.8791C12.0173 13.7695 11.9741 13.6641 11.8968 13.5859L9.87269 11.5723L11.8968 9.55857C11.975 9.48065 12.0189 9.37504 12.0189 9.26494C12.0189 9.15484 11.975 9.04924 11.8968 8.97132ZM15.9759 7.64922L13.4209 15.232C13.4034 15.2838 13.3964 15.3384 13.4002 15.3929C13.404 15.4473 13.4185 15.5005 13.443 15.5493C13.4674 15.5982 13.5013 15.6418 13.5427 15.6776C13.5841 15.7134 13.6321 15.7408 13.6841 15.7582C13.7362 15.7755 13.7911 15.7825 13.8458 15.7787C13.9005 15.7749 13.954 15.7605 14.0031 15.7362C14.0522 15.7118 14.096 15.6781 14.132 15.637C14.168 15.5958 14.1956 15.548 14.213 15.4962L16.768 7.91337C16.7854 7.86162 16.7924 7.80697 16.7886 7.75253C16.7848 7.69808 16.7703 7.64492 16.7459 7.59607C16.7214 7.54721 16.6875 7.50363 16.6461 7.4678C16.6048 7.43198 16.5567 7.40461 16.5047 7.38727C16.4527 7.36992 16.3977 7.36294 16.343 7.36672C16.2883 7.3705 16.2348 7.38496 16.1857 7.40929C16.1366 7.43361 16.0928 7.46732 16.0568 7.50849C16.0208 7.54966 15.9933 7.59748 15.9759 7.64922H15.9759Z" fill="#FF00D6"/>
<path d="M6.992 3.03074C7.29224 2.98209 7.49602 2.70072 7.44717 2.40228C7.39832 2.10384 7.11534 1.90135 6.8151 1.95C6.51487 1.99865 6.31108 2.28002 6.35993 2.57846C6.40878 2.8769 6.69177 3.07939 6.992 3.03074Z" fill="#FF00D6"/>
<path d="M8.93146 3.03123C9.23169 2.98258 9.43547 2.70121 9.38663 2.40277C9.33778 2.10433 9.05479 1.90184 8.75456 1.95049C8.45432 1.99914 8.25054 2.28051 8.29939 2.57894C8.34824 2.87738 8.63122 3.07988 8.93146 3.03123Z" fill="#FF00D6"/>
<path d="M10.7871 3.03686C11.0913 3.03686 11.3379 2.79175 11.3379 2.48938C11.3379 2.18701 11.0913 1.94189 10.7871 1.94189C10.4829 1.94189 10.2363 2.18701 10.2363 2.48938C10.2363 2.79175 10.4829 3.03686 10.7871 3.03686Z" fill="#FF00D6"/>
<path d="M18.6102 2.90427H24.1418C24.197 2.90492 24.2519 2.89467 24.3032 2.87411C24.3544 2.85355 24.4011 2.82308 24.4404 2.78448C24.4797 2.74588 24.5109 2.69991 24.5322 2.64923C24.5535 2.59855 24.5645 2.54418 24.5645 2.48926C24.5645 2.43434 24.5535 2.37996 24.5322 2.32928C24.5109 2.27861 24.4797 2.23264 24.4404 2.19403C24.4011 2.15543 24.3544 2.12497 24.3032 2.1044C24.2519 2.08384 24.197 2.07359 24.1418 2.07425H18.6102C18.555 2.07359 18.5001 2.08384 18.4488 2.1044C18.3976 2.12497 18.3509 2.15543 18.3116 2.19403C18.2723 2.23264 18.2411 2.27861 18.2198 2.32928C18.1985 2.37996 18.1875 2.43434 18.1875 2.48926C18.1875 2.54418 18.1985 2.59855 18.2198 2.64923C18.2411 2.69991 18.2723 2.74588 18.3116 2.78448C18.3509 2.82308 18.3976 2.85355 18.4488 2.87411C18.5001 2.89467 18.555 2.90492 18.6102 2.90427Z" fill="#FF00D6"/>
</svg>
