<svg width="30" height="32" viewBox="0 0 30 32" fill="none" xmlns="http://www.w3.org/2000/svg">
<path d="M19.0007 24.1271V23.0303C22.4421 21.1869 24.1928 17.2277 23.2468 13.4273C22.301 9.627 18.9011 6.96094 15.0007 6.96094C11.1003 6.96094 7.70039 9.627 6.75457 13.4273C5.80864 17.2277 7.55939 21.1869 11.0007 23.0303V24.1241C10.7916 24.1953 10.602 24.3144 10.4468 24.4721C10.3045 24.6108 10.1916 24.7771 10.115 24.9608C10.0383 25.1445 9.99944 25.3419 10.0007 25.5411C10.0012 25.7949 10.0656 26.0445 10.188 26.2665C10.3104 26.4885 10.4868 26.6758 10.7007 26.811C10.5889 27.0042 10.5219 27.2203 10.5047 27.4431C10.4875 27.6659 10.5206 27.8898 10.6015 28.098C10.6825 28.3062 10.8092 28.4933 10.9721 28.6454C11.1351 28.7976 11.3301 28.9109 11.5427 28.9768C11.7475 30.1807 12.7849 31.0618 14.0007 31.0649H16.0007C17.2163 31.0615 18.2534 30.1805 18.4582 28.9768C18.6708 28.911 18.8658 28.7979 19.0288 28.6459C19.1918 28.4939 19.3184 28.3068 19.3994 28.0988C19.4804 27.8908 19.5135 27.6671 19.4965 27.4444C19.4794 27.2217 19.4125 27.0058 19.3008 26.8127C19.3928 26.7546 19.478 26.6862 19.5546 26.6087C19.6967 26.4701 19.8095 26.3041 19.8862 26.1206C19.9628 25.9372 20.0018 25.7401 20.0007 25.5411C19.9994 25.2307 19.9026 24.9282 19.7236 24.6751C19.5446 24.422 19.2921 24.2306 19.0007 24.1271ZM7.5007 15.4978C7.50145 11.7751 10.2094 8.61162 13.8738 8.05233C17.5383 7.49305 21.0598 9.70591 22.1616 13.2601C23.2635 16.8142 21.615 20.6437 18.2822 22.2726C18.1978 22.3138 18.1266 22.378 18.0768 22.4579C18.027 22.5378 18.0006 22.6302 18.0007 22.7245V24.0346H12.0007V22.724C12.0008 22.6297 11.9744 22.5373 11.9246 22.4574C11.8749 22.3775 11.8037 22.3132 11.7192 22.2721C9.12914 21.0209 7.48732 18.3843 7.5007 15.4978ZM11.1538 25.1836C11.1989 25.1373 11.2529 25.1006 11.3125 25.0757C11.3722 25.0508 11.4362 25.0383 11.5007 25.0389H18.5007C18.6333 25.0389 18.7605 25.0918 18.8543 25.186C18.948 25.2802 19.0007 25.4079 19.0007 25.5411C19.0009 25.6081 18.9875 25.6743 18.9611 25.7358C18.9348 25.7973 18.8961 25.8527 18.8476 25.8986C18.8025 25.9449 18.7485 25.9817 18.6889 26.0065C18.6292 26.0314 18.5652 26.0439 18.5007 26.0433H11.5007C11.3681 26.0433 11.2409 25.9904 11.1471 25.8962C11.0534 25.802 11.0007 25.6743 11.0007 25.5411C11.0005 25.4742 11.0139 25.4079 11.0403 25.3464C11.0666 25.2849 11.1053 25.2295 11.1538 25.1836ZM16.0007 30.0606H14.0007C13.6916 30.0593 13.3904 29.9621 13.1384 29.7823C12.8864 29.6025 12.6958 29.349 12.5928 29.0563H17.4086C17.3056 29.349 17.115 29.6025 16.863 29.7823C16.611 29.9621 16.3098 30.0593 16.0007 30.0606ZM18.0007 28.0519H12.0007C11.8681 28.0519 11.7409 27.999 11.6471 27.9049C11.5534 27.8107 11.5007 27.683 11.5007 27.5498C11.5007 27.4166 11.5534 27.2889 11.6471 27.1947C11.7409 27.1005 11.8681 27.0476 12.0007 27.0476H18.0007C18.1333 27.0476 18.2605 27.1005 18.3543 27.1947C18.448 27.2889 18.5007 27.4166 18.5007 27.5498C18.5007 27.683 18.448 27.8107 18.3543 27.9049C18.2605 27.999 18.1333 28.0519 18.0007 28.0519Z" fill="#E35223"/>
<path d="M29.562 12.991L27.0539 12.6762C26.7799 11.6674 26.3804 10.6972 25.865 9.7887L27.415 7.78618C27.4898 7.68955 27.5269 7.56882 27.5194 7.44665C27.5118 7.32449 27.4601 7.2093 27.374 7.12269L23.8391 3.57194C23.7529 3.48544 23.6382 3.43353 23.5166 3.42595C23.3949 3.41837 23.2747 3.45564 23.1785 3.53076L21.1851 5.08747C20.2803 4.56967 19.3142 4.16848 18.3096 3.89339L17.9961 1.37445C17.9809 1.25309 17.9221 1.14149 17.8307 1.06058C17.7394 0.979682 17.6218 0.935047 17.5 0.935059H12.5C12.3781 0.935051 12.2605 0.979754 12.1691 1.06076C12.0778 1.14177 12.019 1.25351 12.0039 1.37496L11.6904 3.89389C10.6858 4.16898 9.71967 4.57017 8.81494 5.08798L6.82156 3.53126C6.72535 3.45614 6.60514 3.41887 6.4835 3.42645C6.36186 3.43403 6.24717 3.48594 6.16094 3.57244L2.62544 7.12263C2.53932 7.20923 2.48763 7.32443 2.48008 7.44659C2.47253 7.56876 2.50964 7.68949 2.58444 7.78612L4.13444 9.7887C3.61901 10.6972 3.21956 11.6674 2.9455 12.6762L0.4375 12.991C0.316674 13.0063 0.205557 13.0654 0.125005 13.1571C0.0444532 13.2488 3.87444e-06 13.3669 8.89531e-09 13.4892V18.5109C-2.29713e-05 18.6333 0.0444802 18.7515 0.125141 18.8433C0.205801 18.935 0.317062 18.994 0.438 19.0092L2.94606 19.3245C3.22023 20.3332 3.61968 21.3033 4.135 22.2119L2.585 24.2139C2.5102 24.3106 2.47309 24.4313 2.48064 24.5535C2.48819 24.6756 2.53988 24.7908 2.626 24.8774L6.16162 28.4282C6.24781 28.5147 6.36246 28.5666 6.48406 28.5742C6.60566 28.5817 6.72583 28.5445 6.822 28.4694L8.81544 26.9126C8.96556 26.9985 9.11544 27.0813 9.2715 27.1608L9.7295 26.2685C9.49394 26.1462 9.26259 26.0158 9.03588 25.8776C8.94928 25.8248 8.84877 25.7997 8.74763 25.8055C8.6465 25.8113 8.54951 25.8479 8.4695 25.9103L6.55594 27.4042L3.645 24.4807L5.13306 22.5594C5.19531 22.479 5.23175 22.3815 5.23756 22.2798C5.24336 22.1781 5.21826 22.077 5.16556 21.99C4.55771 20.9848 4.10744 19.8917 3.83056 18.749C3.80653 18.65 3.7531 18.5608 3.67735 18.4931C3.60161 18.4253 3.50714 18.3824 3.4065 18.3698L1 18.0676V13.9326L3.4065 13.6315C3.50714 13.6189 3.60158 13.5759 3.67732 13.5082C3.75305 13.4404 3.80649 13.3511 3.83056 13.2522C4.10739 12.1095 4.55766 11.0165 5.16556 10.0113C5.21814 9.92433 5.24318 9.82335 5.23738 9.72173C5.23158 9.62012 5.1952 9.52267 5.13306 9.44226L3.645 7.51941L6.55594 4.59585L8.469 6.09036C8.54905 6.15288 8.64614 6.18948 8.74738 6.19531C8.84862 6.20114 8.94923 6.17593 9.03588 6.12301C10.0367 5.51241 11.1251 5.06019 12.2629 4.78222C12.3615 4.75809 12.4503 4.70442 12.5178 4.62835C12.5852 4.55227 12.628 4.4574 12.6404 4.35632L12.9414 1.93939H17.0586L17.3583 4.35632C17.3709 4.45739 17.4137 4.55225 17.4812 4.62831C17.5486 4.70437 17.6375 4.75805 17.736 4.78222C18.8738 5.06014 19.9622 5.51237 20.9629 6.12301C21.0496 6.17592 21.1502 6.20113 21.2515 6.1953C21.3527 6.18947 21.4498 6.15287 21.5299 6.09036L23.444 4.59585L26.3549 7.51941L24.8669 9.44126C24.8047 9.52162 24.7684 9.61903 24.7626 9.7206C24.7568 9.82217 24.7818 9.92312 24.8344 10.0101C25.4422 11.0153 25.8925 12.1084 26.1694 13.2511C26.1934 13.3501 26.2468 13.4393 26.3226 13.5071C26.3983 13.5748 26.4928 13.6178 26.5934 13.6303L28.9999 13.9316V18.0666L26.5934 18.3677C26.4928 18.3803 26.3984 18.4233 26.3226 18.4911C26.2469 18.5588 26.1934 18.6481 26.1694 18.747C25.8925 19.8897 25.4423 20.9827 24.8344 21.9878C24.7817 22.0749 24.7566 22.176 24.7624 22.2777C24.7682 22.3794 24.8046 22.477 24.8669 22.5574L26.3549 24.4785L23.444 27.4043L21.5309 25.9098C21.4509 25.8474 21.3539 25.8108 21.2528 25.805C21.1517 25.7992 21.0512 25.8243 20.9646 25.8771C20.7381 26.0156 20.5067 26.1459 20.2709 26.2677L20.7289 27.1603C20.8827 27.0808 21.0347 26.998 21.185 26.9121L23.1784 28.4689C23.2746 28.544 23.3948 28.5812 23.5164 28.5737C23.6381 28.5661 23.7528 28.5142 23.839 28.4277L27.3744 24.8767C27.4606 24.7902 27.5122 24.675 27.5198 24.5529C27.5273 24.4308 27.4902 24.3101 27.4154 24.2135L25.8654 22.2114C26.3808 21.3028 26.7802 20.3327 27.0544 19.324L29.5625 19.0087C29.6832 18.9934 29.7943 18.9344 29.8748 18.8427C29.9554 18.7511 29.9999 18.6331 30 18.5109V13.4892C30 13.3668 29.9555 13.2486 29.8749 13.1569C29.7942 13.0651 29.6829 13.0061 29.562 12.991V12.991Z" fill="#E35223"/>
<path d="M14.5 4.95264H15.5V5.95696H14.5V4.95264ZM6.86844 8.54352L7.57569 7.83346L8.28269 8.54352L7.57569 9.25382L6.86844 8.54352ZM4 15.498H5V16.5023H4V15.498ZM6.86844 23.4566L7.57544 22.7465L8.2825 23.4565L7.57544 24.1666L6.86844 23.4566ZM21.7171 23.4568L22.4243 22.7465L23.1314 23.4568L22.4243 24.1668L21.7171 23.4568ZM25 15.498H26V16.5023H25V15.498ZM21.7173 8.5437L22.4243 7.83365L23.1316 8.54377L22.4243 9.25382L21.7173 8.5437ZM12.584 20.7983C12.6297 20.8671 12.6916 20.9234 12.7641 20.9624C12.8367 21.0014 12.9177 21.0217 13 21.0217H14C14.1326 21.0217 14.2598 20.9688 14.3535 20.8746L15 20.2253L15.6465 20.8746C15.7403 20.9688 15.8674 21.0217 16 21.0217H17C17.0823 21.0217 17.1633 21.0014 17.2359 20.9624C17.3084 20.9234 17.3703 20.8671 17.416 20.7983L18.2676 19.5153H19C19.1326 19.5152 19.2598 19.4623 19.3535 19.3681L19.8535 18.866C19.9473 18.7718 20 18.6441 20 18.5109V17.3666L21.1579 16.979C21.2576 16.9456 21.3442 16.8817 21.4056 16.7961C21.467 16.7105 21.5 16.6078 21.5 16.5023V14.4937C21.5 14.4003 21.4742 14.3088 21.4253 14.2295C21.3764 14.1501 21.3065 14.0859 21.2234 14.0442L20.5 13.6811V12.485C20.5 12.3731 20.4627 12.2644 20.3942 12.1761C20.3256 12.0878 20.2297 12.0251 20.1216 11.9978L18.5 11.5908V10.9785C18.5 10.8454 18.4473 10.7177 18.3535 10.6235L17.8535 10.1214C17.7598 10.0272 17.6326 9.97427 17.5 9.97423H16C15.8674 9.97427 15.7403 10.0272 15.6465 10.1214L15 10.7707L14.3535 10.1214C14.2598 10.0272 14.1326 9.97427 14 9.97423H12.5C12.3674 9.97427 12.2403 10.0272 12.1465 10.1214L11.6465 10.6235C11.5527 10.7177 11.5 10.8454 11.5 10.9785V11.5908L9.87844 11.9978C9.77033 12.0251 9.67439 12.0878 9.60583 12.1761C9.53727 12.2644 9.50003 12.3731 9.5 12.485V13.6811L8.77663 14.0442C8.69349 14.0859 8.62357 14.1501 8.57471 14.2295C8.52585 14.3088 8.49998 14.4003 8.5 14.4937V16.5023C8.49998 16.6078 8.53301 16.7105 8.5944 16.7961C8.6558 16.8817 8.74244 16.9456 8.84206 16.979L10 17.3666V18.5109C10 18.6441 10.0528 18.7718 10.1465 18.866L10.6465 19.3681C10.7403 19.4623 10.8674 19.5152 11 19.5153H11.7324L12.584 20.7983ZM16.2071 10.9785H17.293L17.5 11.1864V11.7749L16.6465 12.6322C16.5527 12.7263 16.5 12.854 16.5 12.9872V13.9915H17.5V13.1951L18.1536 12.5387L19.5 12.8771V13.4893H19V14.4937H19.8821L20.5 14.8041V16.1401L19.635 16.43L19 15.7922V15.498H18V16.0001C18 16.1333 18.0528 16.261 18.1465 16.3552L19 17.2124V18.303L18.7929 18.5109H18C17.9177 18.5109 17.8367 18.5313 17.7641 18.5703C17.6916 18.6093 17.6297 18.6656 17.584 18.7343L16.7324 20.0174H16.2071L15.5 19.3073V11.6887L16.2071 10.9785ZM11 18.303V17.2124L11.8535 16.3552C11.9473 16.261 12 16.1333 12 16.0001V15.498H11V15.7922L10.365 16.43L9.5 16.1401V14.8041L10.1179 14.4937H11V13.4893H10.5V12.8771L11.8464 12.5388L12.5 13.1951V13.9915H13.5V12.9872C13.5 12.854 13.4473 12.7263 13.3535 12.6322L12.5 11.775V11.1865L12.7071 10.9785H13.793L14.5 11.6887V19.3074L13.7929 20.0174H13.2676L12.4175 18.7343C12.3717 18.6654 12.3096 18.6089 12.2367 18.5699C12.1639 18.5309 12.0825 18.5107 12 18.5109H11.207L11 18.303Z" fill="#E35223"/>
<path d="M13.1465 18.3638L13.8535 17.6537L13.5 17.2986V16H12.5V17.5065C12.5 17.6397 12.5527 17.7674 12.6465 17.8616L13.1465 18.3638ZM17.3535 17.8616C17.4473 17.7674 17.5 17.6397 17.5 17.5065V16H16.5V17.2986L16.1465 17.6537L16.8535 18.3638L17.3535 17.8616Z" fill="#E35223"/>
</svg>
